<?xml version="1.0" encoding="UTF-8" standalone="no"?>
<!-- Created with Inkscape (http://www.inkscape.org/) -->

<svg
   width="210mm"
   height="297mm"
   viewBox="0 0 210 297"
   version="1.1"
   id="svg5"
   xml:space="preserve"
   sodipodi:docname="pinkglass.svg"
   inkscape:export-filename="pinkglass.svg"
   inkscape:export-xdpi="96"
   inkscape:export-ydpi="96"
   inkscape:version="1.2 (dc2aedaf03, 2022-05-15)"
   xmlns:inkscape="http://www.inkscape.org/namespaces/inkscape"
   xmlns:sodipodi="http://sodipodi.sourceforge.net/DTD/sodipodi-0.dtd"
   xmlns="http://www.w3.org/2000/svg"
   xmlns:svg="http://www.w3.org/2000/svg"><sodipodi:namedview
     id="namedview741"
     pagecolor="#ffffff"
     bordercolor="#000000"
     borderopacity="0.25"
     inkscape:showpageshadow="2"
     inkscape:pageopacity="0.0"
     inkscape:pagecheckerboard="0"
     inkscape:deskcolor="#d1d1d1"
     inkscape:document-units="mm"
     showgrid="false"
     inkscape:zoom="0.75633418"
     inkscape:cx="341.11906"
     inkscape:cy="561.25984"
     inkscape:window-width="1806"
     inkscape:window-height="1052"
     inkscape:window-x="2506"
     inkscape:window-y="-8"
     inkscape:window-maximized="1"
     inkscape:current-layer="svg5" /><defs
     id="defs2" /><g
     id="layer1"
     transform="matrix(0.96243101,0,0,1.0184726,2.4753486,-2.1982817)"
     style="opacity:1;stroke:#f78080;stroke-width:7.94182;stroke-dasharray:none;stroke-opacity:1"><path
       style="fill:#d35f5f;stroke:#f78080;stroke-width:7.94182;stroke-dasharray:none;stroke-opacity:1"
       d="m 8.4416812,110.40107 c -1.825625,0 -4.3493971,-0.4318 -5.9167888,0.70873 -1.86090271,1.35431 -1.5194138,5.21088 0.2931583,6.43784 1.2894028,0.87277 3.0878639,0.61454 4.5652972,0.61454 0.070203,25.45785 22.7845051,46.20119 48.3305541,42.17846 10.910005,-1.71803 18.815755,-7.372 26.458333,-15.01457 0.840316,2.2038 3.202869,2.40241 4.752269,0.65863 2.368903,-2.66664 3.982156,-7.15327 4.975931,-10.53641 0.718961,-2.44757 1.959327,-5.89245 1.416402,-8.46138 -0.297039,-1.4044 -1.6637,-1.94662 -2.099733,-3.21698 -0.333375,-0.97049 0.06985,-2.14242 0.113594,-3.13831 0.107245,-2.45427 -1.054805,-6.26357 0.07691,-8.46137 1.202267,-2.33469 4.266847,-2.92947 6.63963,-3.15384 5.399962,-0.51082 10.826392,-0.55527 16.227772,-0.0529 2.37596,0.22119 5.24475,0.51576 6.82378,2.56116 2.30047,2.97992 -0.13405,9.36343 0.93733,12.98752 -2.87514,0.98919 -2.71321,3.74262 -2.25248,6.35 0.87347,4.94277 2.80282,10.7061 5.8173,14.77962 1.57798,2.13219 4.00085,1.92582 5.25463,-0.31573 h 0.35277 c 3.58246,6.90597 13.26798,11.76866 20.46112,13.80772 27.07922,7.67715 53.62222,-13.05031 53.62222,-40.97161 1.56174,0 3.53095,0.27658 4.89197,-0.65546 1.98543,-1.35996 1.94063,-5.1107 0,-6.49111 -1.536,-1.0922 -4.16349,-0.61454 -5.95031,-0.61454 -0.29104,-6.67597 -4.64502,-13.769273 -8.86566,-18.697226 -17.01341,-19.863858 -48.36689,-19.143486 -64.77282,1.058333 -3.20145,3.941939 -5.99475,8.777813 -7.14763,13.758333 -10.23937,-4.25732 -23.96983,-4.26155 -34.219436,0 C 88.276349,100.07808 83.463049,93.700214 78.997235,89.2344 59.767319,70.004483 25.514361,74.294614 12.597756,98.7594 10.683231,102.38525 8.99272,106.3092 8.4416812,110.40107 M 45.836125,81.926608 c 4.196291,-0.50165 8.616949,0.0071 12.699999,1.003653 31.183086,7.61118 37.366927,50.012249 10.936111,67.212989 -4.871508,3.17041 -10.485261,4.97875 -16.227777,5.66561 -4.330347,0.51788 -8.839906,0.0247 -13.052778,-1.00365 C 9.1793395,147.23565 2.7601952,104.78202 29.25557,87.714633 34.310522,84.458494 39.883,82.638866 45.836125,81.926608 m 113.947215,0 c 3.98216,-0.47625 8.09237,0.01905 11.99445,0.817033 31.72036,6.486173 38.52651,50.566459 11.64166,67.440529 -4.947,3.1048 -10.44575,4.93289 -16.22777,5.62469 -4.33035,0.51788 -8.83991,0.0247 -13.05278,-1.00365 -30.96295,-7.55756 -37.23781,-49.99461 -10.93611,-67.089519 4.96887,-3.229327 10.72444,-5.088466 16.58055,-5.789083 z"
       id="path179" /></g></svg>
